<?xml version="1.0" encoding="UTF-8" standalone="no"?>
<svg
   enable-background="new 0 0 512 512"
   height="249.17439"
   id="Layer_1"
   version="1.1"
   viewBox="0 0 249.17131 249.17439"
   width="249.17131"
   xml:space="preserve"
   sodipodi:docname="moon.svg"
   inkscape:version="1.3.2 (091e20e, 2023-11-25, custom)"
   xmlns:inkscape="http://www.inkscape.org/namespaces/inkscape"
   xmlns:sodipodi="http://sodipodi.sourceforge.net/DTD/sodipodi-0.dtd"
   xmlns="http://www.w3.org/2000/svg"
   xmlns:svg="http://www.w3.org/2000/svg"><defs
     id="defs1" /><sodipodi:namedview
     id="namedview1"
     pagecolor="#ffffff"
     bordercolor="#000000"
     borderopacity="0.25"
     inkscape:showpageshadow="2"
     inkscape:pageopacity="0.0"
     inkscape:pagecheckerboard="0"
     inkscape:deskcolor="#d1d1d1"
     inkscape:zoom="1.6230469"
     inkscape:cx="254.15162"
     inkscape:cy="254.15162"
     inkscape:window-width="1920"
     inkscape:window-height="1027"
     inkscape:window-x="-8"
     inkscape:window-y="-8"
     inkscape:window-maximized="1"
     inkscape:current-layer="Layer_1" /><path
     d="m 218.437,211.73739 c -49.875,49.916 -131.083,49.916 -181,0 -49.916,-49.918 -49.916,-131.124997 0,-181.020997 13.209,-13.187 29.312,-23.2499996 47.832,-29.81199962 5.834,-2.04199998 12.293,-0.562 16.625,3.79200002 4.376,4.3749996 5.855,10.8329996 3.793,16.6249996 -12.542,35.375 -4,73.666 22.25,99.916997 26.209,26.228 64.5,34.75 99.916,22.25 5.792,-2.062 12.271,-0.582 16.625,3.793 4.376,4.332 5.834,10.812 3.771,16.625 -6.521,18.519 -16.604,34.622 -29.812,47.831 z M 60.062,53.341393 c -37.438,37.438 -37.438,98.353997 0,135.770997 40,40.021 108.125,36.416 143,-8.168 -35.959,2.25 -71.375,-10.729 -97.75,-37.084 -26.375,-26.354 -39.333,-61.770997 -37.084,-97.728997 -2.874,2.252 -5.604,4.648 -8.166,7.21 z"
     fill="#1d1d1b"
     id="path1" /></svg>
